# xmcd CD database file
#
# Track frame offsets:
#	150
#	15468
#	33718
#	49036
#
# Disc length: 893 seconds
#
# Revision: 0
# Processed by: cddbd v1.5.1PL0 Copyright (c) Steve Scherf et al.
# Submitted via: CDex 1.50
#
DISCID=29037b04
DTITLE=アツキヨ - 僕らをのせたバスは
DYEAR=2005
DGENRE=JPop
TTITLE0=僕らをのせたバスは
TTITLE1=土曜日・日曜日
TTITLE2=僕らをのせたバスは【カラオケ】
TTITLE3=土曜日・日曜日【カラオケ】
EXTD=YEAR: 2005
EXTT0=
EXTT1=
EXTT2=
EXTT3=
PLAYORDER=
